<svg id="visual" viewBox="0 0 900 600" width="900" height="600" xmlns="http://www.w3.org/2000/svg" xmlns:xlink="http://www.w3.org/1999/xlink" version="1.1"><rect x="0" y="0" width="900" height="600" fill="#0059e0"></rect><path d="M0 331L129 459L257 424L386 342L514 441L643 440L771 446L900 367L900 601L771 601L643 601L514 601L386 601L257 601L129 601L0 601Z" fill="#4facf7"></path><path d="M0 380L129 372L257 409L386 407L514 470L643 432L771 444L900 406L900 601L771 601L643 601L514 601L386 601L257 601L129 601L0 601Z" fill="#2e9efc"></path><path d="M0 486L129 484L257 508L386 463L514 459L643 428L771 482L900 479L900 601L771 601L643 601L514 601L386 601L257 601L129 601L0 601Z" fill="#0a8efe"></path><path d="M0 450L129 450L257 485L386 521L514 492L643 518L771 500L900 494L900 601L771 601L643 601L514 601L386 601L257 601L129 601L0 601Z" fill="#097dff"></path><path d="M0 522L129 541L257 498L386 553L514 547L643 535L771 540L900 544L900 601L771 601L643 601L514 601L386 601L257 601L129 601L0 601Z" fill="#2f6afd"></path><path d="M0 530L129 543L257 586L386 550L514 578L643 585L771 528L900 582L900 601L771 601L643 601L514 601L386 601L257 601L129 601L0 601Z" fill="#4f52f7"></path></svg>